<mxfile host="app.diagrams.net" modified="2021-01-05T07:11:14.250Z" agent="5.0 (Windows NT 10.0; Win64; x64) AppleWebKit/537.36 (KHTML, like Gecko) Chrome/86.0.4240.198 Safari/537.36" etag="81WsFbl-x7PIY7pi2u3P" version="14.1.8" type="github">
  <diagram id="bFNYf5g5ua2_N0QjlzBi" name="Page-1">
    <mxGraphModel dx="2782" dy="1030" grid="1" gridSize="10" guides="1" tooltips="1" connect="1" arrows="1" fold="1" page="1" pageScale="1" pageWidth="827" pageHeight="1169" math="0" shadow="0">
      <root>
        <mxCell id="0" />
        <mxCell id="1" parent="0" />
        <mxCell id="qjKBD9P_O_JD6ae_mKQQ-1" value="软件项目监控流程" style="swimlane;html=1;childLayout=stackLayout;startSize=20;rounded=0;shadow=0;labelBackgroundColor=none;strokeWidth=1;fontFamily=Verdana;fontSize=8;align=center;" vertex="1" parent="1">
          <mxGeometry x="-810" width="1060" height="1270" as="geometry">
            <mxRectangle x="20" y="940" width="60" height="20" as="alternateBounds" />
          </mxGeometry>
        </mxCell>
        <mxCell id="qjKBD9P_O_JD6ae_mKQQ-2" value="" style="group" vertex="1" connectable="0" parent="qjKBD9P_O_JD6ae_mKQQ-1">
          <mxGeometry y="20" width="41" height="1250" as="geometry" />
        </mxCell>
        <mxCell id="qjKBD9P_O_JD6ae_mKQQ-3" value="里&lt;br&gt;程&lt;br&gt;碑&lt;br&gt;评&lt;br&gt;审" style="shape=step;perimeter=stepPerimeter;whiteSpace=wrap;html=1;fixedSize=1;size=20;direction=south;" vertex="1" parent="qjKBD9P_O_JD6ae_mKQQ-2">
          <mxGeometry y="680" width="40" height="230" as="geometry" />
        </mxCell>
        <mxCell id="qjKBD9P_O_JD6ae_mKQQ-4" value="阶&lt;br&gt;段&lt;br&gt;会&lt;br&gt;议" style="shape=step;perimeter=stepPerimeter;whiteSpace=wrap;html=1;fixedSize=1;size=20;direction=south;" vertex="1" parent="qjKBD9P_O_JD6ae_mKQQ-2">
          <mxGeometry y="430" width="40" height="270" as="geometry" />
        </mxCell>
        <mxCell id="qjKBD9P_O_JD6ae_mKQQ-5" value="单&lt;br&gt;双&lt;br&gt;周&lt;br&gt;例&lt;br&gt;会" style="shape=step;perimeter=stepPerimeter;whiteSpace=wrap;html=1;fixedSize=1;size=20;direction=south;" vertex="1" parent="qjKBD9P_O_JD6ae_mKQQ-2">
          <mxGeometry y="150" width="40" height="300" as="geometry" />
        </mxCell>
        <mxCell id="qjKBD9P_O_JD6ae_mKQQ-6" value="任&#xa;务&#xa;分&#xa;配&#xa;与&#xa;跟&#xa;踪" style="shape=offPageConnector;size=0.11764705882352941;flipV=0;horizontal=1;" vertex="1" parent="qjKBD9P_O_JD6ae_mKQQ-2">
          <mxGeometry width="40" height="170" as="geometry" />
        </mxCell>
        <mxCell id="qjKBD9P_O_JD6ae_mKQQ-192" value="项&lt;br&gt;目&lt;br&gt;验&lt;br&gt;收" style="shape=step;perimeter=stepPerimeter;whiteSpace=wrap;html=1;fixedSize=1;size=20;direction=south;" vertex="1" parent="qjKBD9P_O_JD6ae_mKQQ-2">
          <mxGeometry y="1050" width="40" height="200" as="geometry" />
        </mxCell>
        <mxCell id="qjKBD9P_O_JD6ae_mKQQ-7" value="计&lt;br&gt;划&lt;br&gt;变&lt;br&gt;更" style="shape=step;perimeter=stepPerimeter;whiteSpace=wrap;html=1;fixedSize=1;size=20;direction=south;" vertex="1" parent="qjKBD9P_O_JD6ae_mKQQ-2">
          <mxGeometry y="890" width="40" height="200" as="geometry" />
        </mxCell>
        <mxCell id="qjKBD9P_O_JD6ae_mKQQ-19" value="输入" style="swimlane;html=1;startSize=20;dashed=1;" vertex="1" parent="qjKBD9P_O_JD6ae_mKQQ-1">
          <mxGeometry x="41" y="20" width="160" height="1250" as="geometry" />
        </mxCell>
        <mxCell id="qjKBD9P_O_JD6ae_mKQQ-20" value="阶段工作产品" style="shape=document;whiteSpace=wrap;html=1;boundedLbl=1;fontSize=12;" vertex="1" parent="qjKBD9P_O_JD6ae_mKQQ-19">
          <mxGeometry x="23" y="534.16" width="120" height="30" as="geometry" />
        </mxCell>
        <mxCell id="qjKBD9P_O_JD6ae_mKQQ-32" value="软件开发计划" style="shape=document;whiteSpace=wrap;html=1;boundedLbl=1;fontSize=12;" vertex="1" parent="qjKBD9P_O_JD6ae_mKQQ-19">
          <mxGeometry x="20" y="84.00999999999999" width="120" height="30" as="geometry" />
        </mxCell>
        <mxCell id="qjKBD9P_O_JD6ae_mKQQ-33" value="软件任务分配与跟踪表" style="shape=document;whiteSpace=wrap;html=1;boundedLbl=1;fontSize=12;" vertex="1" parent="qjKBD9P_O_JD6ae_mKQQ-19">
          <mxGeometry x="23" y="190" width="120" height="50" as="geometry" />
        </mxCell>
        <mxCell id="qjKBD9P_O_JD6ae_mKQQ-170" value="软件开发计划" style="shape=document;whiteSpace=wrap;html=1;boundedLbl=1;shadow=1;fontSize=12;" vertex="1" parent="qjKBD9P_O_JD6ae_mKQQ-19">
          <mxGeometry x="23" y="740" width="120" height="30" as="geometry" />
        </mxCell>
        <mxCell id="qjKBD9P_O_JD6ae_mKQQ-171" value="阶段工作产品" style="shape=document;whiteSpace=wrap;html=1;boundedLbl=1;fontSize=12;" vertex="1" parent="qjKBD9P_O_JD6ae_mKQQ-19">
          <mxGeometry x="23" y="795.75" width="120" height="30" as="geometry" />
        </mxCell>
        <mxCell id="qjKBD9P_O_JD6ae_mKQQ-193" value="项目软件执行情况" style="shape=document;whiteSpace=wrap;html=1;boundedLbl=1;fontSize=12;" vertex="1" parent="qjKBD9P_O_JD6ae_mKQQ-19">
          <mxGeometry x="23" y="1129" width="120" height="30" as="geometry" />
        </mxCell>
        <mxCell id="qjKBD9P_O_JD6ae_mKQQ-195" value="软件开发计划" style="shape=document;whiteSpace=wrap;html=1;boundedLbl=1;fontSize=12;" vertex="1" parent="qjKBD9P_O_JD6ae_mKQQ-19">
          <mxGeometry x="23" y="980" width="120" height="30" as="geometry" />
        </mxCell>
        <mxCell id="qjKBD9P_O_JD6ae_mKQQ-196" value="软件测量数据" style="shape=document;whiteSpace=wrap;html=1;boundedLbl=1;fontSize=12;" vertex="1" parent="qjKBD9P_O_JD6ae_mKQQ-19">
          <mxGeometry x="23" y="1020" width="120" height="30" as="geometry" />
        </mxCell>
        <mxCell id="qjKBD9P_O_JD6ae_mKQQ-37" value="项目负责人" style="swimlane;html=1;startSize=20;dashed=1;" vertex="1" parent="qjKBD9P_O_JD6ae_mKQQ-1">
          <mxGeometry x="201" y="20" width="339" height="1250" as="geometry" />
        </mxCell>
        <mxCell id="qjKBD9P_O_JD6ae_mKQQ-178" style="edgeStyle=orthogonalEdgeStyle;rounded=0;orthogonalLoop=1;jettySize=auto;html=1;entryX=0.5;entryY=0;entryDx=0;entryDy=0;endArrow=open;endFill=0;" edge="1" parent="qjKBD9P_O_JD6ae_mKQQ-37" source="qjKBD9P_O_JD6ae_mKQQ-155" target="qjKBD9P_O_JD6ae_mKQQ-177">
          <mxGeometry relative="1" as="geometry" />
        </mxCell>
        <mxCell id="qjKBD9P_O_JD6ae_mKQQ-155" value="里程碑评审" style="rounded=0;whiteSpace=wrap;html=1;shadow=1;fontSize=12;" vertex="1" parent="qjKBD9P_O_JD6ae_mKQQ-37">
          <mxGeometry x="140" y="740" width="280" height="30" as="geometry" />
        </mxCell>
        <mxCell id="qjKBD9P_O_JD6ae_mKQQ-156" value="项目软件验收交付" style="rounded=0;whiteSpace=wrap;html=1;shadow=1;fontSize=12;" vertex="1" parent="qjKBD9P_O_JD6ae_mKQQ-37">
          <mxGeometry x="140" y="1129" width="280" height="30" as="geometry" />
        </mxCell>
        <mxCell id="qjKBD9P_O_JD6ae_mKQQ-157" value="计划变更" style="rounded=0;whiteSpace=wrap;html=1;shadow=1;fontSize=12;" vertex="1" parent="qjKBD9P_O_JD6ae_mKQQ-37">
          <mxGeometry x="140" y="980" width="280" height="30" as="geometry" />
        </mxCell>
        <mxCell id="qjKBD9P_O_JD6ae_mKQQ-161" value="是" style="edgeStyle=orthogonalEdgeStyle;rounded=0;orthogonalLoop=1;jettySize=auto;html=1;entryX=0.5;entryY=0;entryDx=0;entryDy=0;endArrow=open;endFill=0;" edge="1" parent="qjKBD9P_O_JD6ae_mKQQ-37" source="qjKBD9P_O_JD6ae_mKQQ-158" target="qjKBD9P_O_JD6ae_mKQQ-160">
          <mxGeometry relative="1" as="geometry" />
        </mxCell>
        <mxCell id="qjKBD9P_O_JD6ae_mKQQ-158" value="单双周点" style="rhombus;whiteSpace=wrap;html=1;shadow=1;fontSize=12;" vertex="1" parent="qjKBD9P_O_JD6ae_mKQQ-37">
          <mxGeometry x="21" y="150" width="119" height="50" as="geometry" />
        </mxCell>
        <mxCell id="qjKBD9P_O_JD6ae_mKQQ-163" style="edgeStyle=orthogonalEdgeStyle;rounded=0;orthogonalLoop=1;jettySize=auto;html=1;entryX=0.5;entryY=0;entryDx=0;entryDy=0;endArrow=open;endFill=0;" edge="1" parent="qjKBD9P_O_JD6ae_mKQQ-37" source="qjKBD9P_O_JD6ae_mKQQ-160" target="qjKBD9P_O_JD6ae_mKQQ-162">
          <mxGeometry relative="1" as="geometry" />
        </mxCell>
        <mxCell id="qjKBD9P_O_JD6ae_mKQQ-164" value="否" style="edgeLabel;html=1;align=center;verticalAlign=middle;resizable=0;points=[];" vertex="1" connectable="0" parent="qjKBD9P_O_JD6ae_mKQQ-163">
          <mxGeometry x="-0.7274" y="4" relative="1" as="geometry">
            <mxPoint as="offset" />
          </mxGeometry>
        </mxCell>
        <mxCell id="qjKBD9P_O_JD6ae_mKQQ-168" style="edgeStyle=orthogonalEdgeStyle;rounded=0;orthogonalLoop=1;jettySize=auto;html=1;entryX=0.25;entryY=0;entryDx=0;entryDy=0;endArrow=open;endFill=0;" edge="1" parent="qjKBD9P_O_JD6ae_mKQQ-37" source="qjKBD9P_O_JD6ae_mKQQ-160" target="qjKBD9P_O_JD6ae_mKQQ-155">
          <mxGeometry relative="1" as="geometry">
            <Array as="points">
              <mxPoint x="80" y="670" />
              <mxPoint x="210" y="670" />
            </Array>
          </mxGeometry>
        </mxCell>
        <mxCell id="qjKBD9P_O_JD6ae_mKQQ-169" value="是" style="edgeLabel;html=1;align=center;verticalAlign=middle;resizable=0;points=[];" vertex="1" connectable="0" parent="qjKBD9P_O_JD6ae_mKQQ-168">
          <mxGeometry x="-0.857" relative="1" as="geometry">
            <mxPoint as="offset" />
          </mxGeometry>
        </mxCell>
        <mxCell id="qjKBD9P_O_JD6ae_mKQQ-160" value="里程碑点" style="rhombus;whiteSpace=wrap;html=1;shadow=1;fontSize=12;" vertex="1" parent="qjKBD9P_O_JD6ae_mKQQ-37">
          <mxGeometry x="21" y="280" width="119" height="50" as="geometry" />
        </mxCell>
        <mxCell id="qjKBD9P_O_JD6ae_mKQQ-162" value="阶段点" style="rhombus;whiteSpace=wrap;html=1;shadow=1;fontSize=12;" vertex="1" parent="qjKBD9P_O_JD6ae_mKQQ-37">
          <mxGeometry x="149" y="360" width="119" height="50" as="geometry" />
        </mxCell>
        <mxCell id="qjKBD9P_O_JD6ae_mKQQ-180" value="是" style="edgeStyle=orthogonalEdgeStyle;rounded=0;orthogonalLoop=1;jettySize=auto;html=1;entryX=0.5;entryY=0;entryDx=0;entryDy=0;endArrow=open;endFill=0;" edge="1" parent="qjKBD9P_O_JD6ae_mKQQ-37" source="qjKBD9P_O_JD6ae_mKQQ-177" target="qjKBD9P_O_JD6ae_mKQQ-157">
          <mxGeometry relative="1" as="geometry" />
        </mxCell>
        <mxCell id="qjKBD9P_O_JD6ae_mKQQ-184" style="edgeStyle=orthogonalEdgeStyle;rounded=0;orthogonalLoop=1;jettySize=auto;html=1;entryX=0.5;entryY=0;entryDx=0;entryDy=0;endArrow=open;endFill=0;" edge="1" parent="qjKBD9P_O_JD6ae_mKQQ-37" source="qjKBD9P_O_JD6ae_mKQQ-177" target="qjKBD9P_O_JD6ae_mKQQ-181">
          <mxGeometry relative="1" as="geometry" />
        </mxCell>
        <mxCell id="qjKBD9P_O_JD6ae_mKQQ-204" value="否" style="edgeLabel;html=1;align=center;verticalAlign=middle;resizable=0;points=[];" vertex="1" connectable="0" parent="qjKBD9P_O_JD6ae_mKQQ-184">
          <mxGeometry x="-0.5412" y="-5" relative="1" as="geometry">
            <mxPoint as="offset" />
          </mxGeometry>
        </mxCell>
        <mxCell id="qjKBD9P_O_JD6ae_mKQQ-177" value="触发计划变更" style="rhombus;whiteSpace=wrap;html=1;shadow=1;fontSize=12;" vertex="1" parent="qjKBD9P_O_JD6ae_mKQQ-37">
          <mxGeometry x="220.5" y="840" width="119" height="50" as="geometry" />
        </mxCell>
        <mxCell id="qjKBD9P_O_JD6ae_mKQQ-186" style="edgeStyle=orthogonalEdgeStyle;rounded=0;orthogonalLoop=1;jettySize=auto;html=1;entryX=0.5;entryY=0;entryDx=0;entryDy=0;endArrow=open;endFill=0;" edge="1" parent="qjKBD9P_O_JD6ae_mKQQ-37" source="qjKBD9P_O_JD6ae_mKQQ-181" target="qjKBD9P_O_JD6ae_mKQQ-156">
          <mxGeometry relative="1" as="geometry">
            <Array as="points">
              <mxPoint x="99" y="1100" />
              <mxPoint x="280" y="1100" />
            </Array>
          </mxGeometry>
        </mxCell>
        <mxCell id="qjKBD9P_O_JD6ae_mKQQ-189" value="是" style="edgeLabel;html=1;align=center;verticalAlign=middle;resizable=0;points=[];" vertex="1" connectable="0" parent="qjKBD9P_O_JD6ae_mKQQ-186">
          <mxGeometry x="-0.8453" y="-2" relative="1" as="geometry">
            <mxPoint as="offset" />
          </mxGeometry>
        </mxCell>
        <mxCell id="qjKBD9P_O_JD6ae_mKQQ-181" value="项目软件结束" style="rhombus;whiteSpace=wrap;html=1;shadow=1;fontSize=12;" vertex="1" parent="qjKBD9P_O_JD6ae_mKQQ-37">
          <mxGeometry x="39" y="890" width="119" height="50" as="geometry" />
        </mxCell>
        <mxCell id="qjKBD9P_O_JD6ae_mKQQ-215" value="开始" style="html=1;dashed=0;whitespace=wrap;shape=mxgraph.dfd.start" vertex="1" parent="qjKBD9P_O_JD6ae_mKQQ-37">
          <mxGeometry x="229" y="30" width="80" height="30" as="geometry" />
        </mxCell>
        <mxCell id="qjKBD9P_O_JD6ae_mKQQ-64" value="相关人员" style="swimlane;html=1;startSize=20;dashed=1;" vertex="1" parent="qjKBD9P_O_JD6ae_mKQQ-1">
          <mxGeometry x="540" y="20" width="330" height="1250" as="geometry" />
        </mxCell>
        <mxCell id="qjKBD9P_O_JD6ae_mKQQ-68" value="输出" style="swimlane;html=1;startSize=20;dashed=1;" vertex="1" parent="qjKBD9P_O_JD6ae_mKQQ-1">
          <mxGeometry x="870" y="20" width="190" height="1250" as="geometry" />
        </mxCell>
        <mxCell id="qjKBD9P_O_JD6ae_mKQQ-69" value="个人单/双周报" style="shape=document;whiteSpace=wrap;html=1;boundedLbl=1;fontSize=12;" vertex="1" parent="qjKBD9P_O_JD6ae_mKQQ-68">
          <mxGeometry x="52" y="84.00999999999999" width="120" height="30" as="geometry" />
        </mxCell>
        <mxCell id="qjKBD9P_O_JD6ae_mKQQ-70" value="软件开发计划" style="shape=document;whiteSpace=wrap;html=1;boundedLbl=1;fontSize=12;" vertex="1" parent="qjKBD9P_O_JD6ae_mKQQ-68">
          <mxGeometry x="53" y="498.40999999999997" width="120" height="30" as="geometry" />
        </mxCell>
        <mxCell id="qjKBD9P_O_JD6ae_mKQQ-128" value="软件任务分配与跟踪表" style="shape=document;whiteSpace=wrap;html=1;boundedLbl=1;fontSize=12;" vertex="1" parent="qjKBD9P_O_JD6ae_mKQQ-68">
          <mxGeometry x="52" y="130" width="120" height="50" as="geometry" />
        </mxCell>
        <mxCell id="qjKBD9P_O_JD6ae_mKQQ-131" value="软件开发计划" style="shape=document;whiteSpace=wrap;html=1;boundedLbl=1;fontSize=12;" vertex="1" parent="qjKBD9P_O_JD6ae_mKQQ-68">
          <mxGeometry x="49" y="200" width="120" height="30" as="geometry" />
        </mxCell>
        <mxCell id="qjKBD9P_O_JD6ae_mKQQ-132" value="外部承诺跟踪表" style="shape=document;whiteSpace=wrap;html=1;boundedLbl=1;fontSize=12;" vertex="1" parent="qjKBD9P_O_JD6ae_mKQQ-68">
          <mxGeometry x="49" y="240" width="120" height="30" as="geometry" />
        </mxCell>
        <mxCell id="qjKBD9P_O_JD6ae_mKQQ-133" value="资源跟踪表" style="shape=document;whiteSpace=wrap;html=1;boundedLbl=1;fontSize=12;" vertex="1" parent="qjKBD9P_O_JD6ae_mKQQ-68">
          <mxGeometry x="49" y="280" width="120" height="30" as="geometry" />
        </mxCell>
        <mxCell id="qjKBD9P_O_JD6ae_mKQQ-134" value="问题跟踪汇总表" style="shape=document;whiteSpace=wrap;html=1;boundedLbl=1;fontSize=12;" vertex="1" parent="qjKBD9P_O_JD6ae_mKQQ-68">
          <mxGeometry x="49" y="320" width="120" height="30" as="geometry" />
        </mxCell>
        <mxCell id="qjKBD9P_O_JD6ae_mKQQ-135" value="软件单/双周报" style="shape=document;whiteSpace=wrap;html=1;boundedLbl=1;fontSize=12;" vertex="1" parent="qjKBD9P_O_JD6ae_mKQQ-68">
          <mxGeometry x="49" y="360" width="120" height="30" as="geometry" />
        </mxCell>
        <mxCell id="qjKBD9P_O_JD6ae_mKQQ-136" value="软件会议纪要" style="shape=document;whiteSpace=wrap;html=1;boundedLbl=1;fontSize=12;" vertex="1" parent="qjKBD9P_O_JD6ae_mKQQ-68">
          <mxGeometry x="49" y="398.40999999999997" width="120" height="30" as="geometry" />
        </mxCell>
        <mxCell id="qjKBD9P_O_JD6ae_mKQQ-147" value="外部承诺跟踪表" style="shape=document;whiteSpace=wrap;html=1;boundedLbl=1;fontSize=12;" vertex="1" parent="qjKBD9P_O_JD6ae_mKQQ-68">
          <mxGeometry x="52" y="534.5" width="120" height="30" as="geometry" />
        </mxCell>
        <mxCell id="qjKBD9P_O_JD6ae_mKQQ-148" value="资源跟踪表" style="shape=document;whiteSpace=wrap;html=1;boundedLbl=1;fontSize=12;" vertex="1" parent="qjKBD9P_O_JD6ae_mKQQ-68">
          <mxGeometry x="52" y="570" width="120" height="30" as="geometry" />
        </mxCell>
        <mxCell id="qjKBD9P_O_JD6ae_mKQQ-149" value="问题跟踪汇总表" style="shape=document;whiteSpace=wrap;html=1;boundedLbl=1;fontSize=12;" vertex="1" parent="qjKBD9P_O_JD6ae_mKQQ-68">
          <mxGeometry x="52" y="610" width="120" height="30" as="geometry" />
        </mxCell>
        <mxCell id="qjKBD9P_O_JD6ae_mKQQ-150" value="软件会议纪要" style="shape=document;whiteSpace=wrap;html=1;boundedLbl=1;fontSize=12;" vertex="1" parent="qjKBD9P_O_JD6ae_mKQQ-68">
          <mxGeometry x="52" y="690" width="120" height="30" as="geometry" />
        </mxCell>
        <mxCell id="qjKBD9P_O_JD6ae_mKQQ-151" value="软件阶段报告" style="shape=document;whiteSpace=wrap;html=1;boundedLbl=1;fontSize=12;" vertex="1" parent="qjKBD9P_O_JD6ae_mKQQ-68">
          <mxGeometry x="52" y="650" width="120" height="30" as="geometry" />
        </mxCell>
        <mxCell id="qjKBD9P_O_JD6ae_mKQQ-205" value="软件开发计划" style="shape=document;whiteSpace=wrap;html=1;boundedLbl=1;fontSize=12;" vertex="1" parent="qjKBD9P_O_JD6ae_mKQQ-68">
          <mxGeometry x="52" y="980" width="120" height="30" as="geometry" />
        </mxCell>
        <mxCell id="qjKBD9P_O_JD6ae_mKQQ-206" value="软件里程碑报告" style="shape=document;whiteSpace=wrap;html=1;boundedLbl=1;fontSize=12;" vertex="1" parent="qjKBD9P_O_JD6ae_mKQQ-68">
          <mxGeometry x="52" y="740" width="120" height="30" as="geometry" />
        </mxCell>
        <mxCell id="qjKBD9P_O_JD6ae_mKQQ-207" value="项目软件评审报告" style="shape=document;whiteSpace=wrap;html=1;boundedLbl=1;fontSize=12;" vertex="1" parent="qjKBD9P_O_JD6ae_mKQQ-68">
          <mxGeometry x="52" y="780" width="120" height="30" as="geometry" />
        </mxCell>
        <mxCell id="qjKBD9P_O_JD6ae_mKQQ-210" value="软件会议纪要" style="shape=document;whiteSpace=wrap;html=1;boundedLbl=1;fontSize=12;" vertex="1" parent="qjKBD9P_O_JD6ae_mKQQ-68">
          <mxGeometry x="52" y="1129" width="120" height="30" as="geometry" />
        </mxCell>
        <mxCell id="qjKBD9P_O_JD6ae_mKQQ-211" value="软件研制总结报告" style="shape=document;whiteSpace=wrap;html=1;boundedLbl=1;fontSize=12;" vertex="1" parent="qjKBD9P_O_JD6ae_mKQQ-68">
          <mxGeometry x="52" y="1170" width="120" height="30" as="geometry" />
        </mxCell>
        <mxCell id="qjKBD9P_O_JD6ae_mKQQ-194" style="edgeStyle=orthogonalEdgeStyle;rounded=0;orthogonalLoop=1;jettySize=auto;html=1;entryX=0;entryY=0.5;entryDx=0;entryDy=0;endArrow=open;endFill=0;" edge="1" parent="qjKBD9P_O_JD6ae_mKQQ-1" source="qjKBD9P_O_JD6ae_mKQQ-193" target="qjKBD9P_O_JD6ae_mKQQ-156">
          <mxGeometry relative="1" as="geometry" />
        </mxCell>
        <mxCell id="qjKBD9P_O_JD6ae_mKQQ-197" style="edgeStyle=orthogonalEdgeStyle;rounded=0;orthogonalLoop=1;jettySize=auto;html=1;entryX=0;entryY=0.5;entryDx=0;entryDy=0;endArrow=open;endFill=0;" edge="1" parent="qjKBD9P_O_JD6ae_mKQQ-1" source="qjKBD9P_O_JD6ae_mKQQ-195" target="qjKBD9P_O_JD6ae_mKQQ-157">
          <mxGeometry relative="1" as="geometry" />
        </mxCell>
        <mxCell id="qjKBD9P_O_JD6ae_mKQQ-198" style="edgeStyle=orthogonalEdgeStyle;rounded=0;orthogonalLoop=1;jettySize=auto;html=1;entryX=0;entryY=0.5;entryDx=0;entryDy=0;endArrow=open;endFill=0;" edge="1" parent="qjKBD9P_O_JD6ae_mKQQ-1" source="qjKBD9P_O_JD6ae_mKQQ-196" target="qjKBD9P_O_JD6ae_mKQQ-157">
          <mxGeometry relative="1" as="geometry" />
        </mxCell>
        <mxCell id="qjKBD9P_O_JD6ae_mKQQ-199" style="edgeStyle=orthogonalEdgeStyle;rounded=0;orthogonalLoop=1;jettySize=auto;html=1;entryX=0;entryY=0.5;entryDx=0;entryDy=0;endArrow=open;endFill=0;" edge="1" parent="qjKBD9P_O_JD6ae_mKQQ-1" source="qjKBD9P_O_JD6ae_mKQQ-170" target="qjKBD9P_O_JD6ae_mKQQ-155">
          <mxGeometry relative="1" as="geometry" />
        </mxCell>
        <mxCell id="qjKBD9P_O_JD6ae_mKQQ-200" style="edgeStyle=orthogonalEdgeStyle;rounded=0;orthogonalLoop=1;jettySize=auto;html=1;entryX=0;entryY=0.5;entryDx=0;entryDy=0;endArrow=open;endFill=0;" edge="1" parent="qjKBD9P_O_JD6ae_mKQQ-1" source="qjKBD9P_O_JD6ae_mKQQ-171" target="qjKBD9P_O_JD6ae_mKQQ-155">
          <mxGeometry relative="1" as="geometry" />
        </mxCell>
        <mxCell id="qjKBD9P_O_JD6ae_mKQQ-208" style="edgeStyle=orthogonalEdgeStyle;rounded=0;orthogonalLoop=1;jettySize=auto;html=1;entryX=0;entryY=0.5;entryDx=0;entryDy=0;endArrow=open;endFill=0;" edge="1" parent="qjKBD9P_O_JD6ae_mKQQ-1" source="qjKBD9P_O_JD6ae_mKQQ-155" target="qjKBD9P_O_JD6ae_mKQQ-206">
          <mxGeometry relative="1" as="geometry" />
        </mxCell>
        <mxCell id="qjKBD9P_O_JD6ae_mKQQ-209" style="edgeStyle=orthogonalEdgeStyle;rounded=0;orthogonalLoop=1;jettySize=auto;html=1;entryX=0;entryY=0.5;entryDx=0;entryDy=0;endArrow=open;endFill=0;" edge="1" parent="qjKBD9P_O_JD6ae_mKQQ-1" source="qjKBD9P_O_JD6ae_mKQQ-155" target="qjKBD9P_O_JD6ae_mKQQ-207">
          <mxGeometry relative="1" as="geometry" />
        </mxCell>
        <mxCell id="qjKBD9P_O_JD6ae_mKQQ-212" style="edgeStyle=orthogonalEdgeStyle;rounded=0;orthogonalLoop=1;jettySize=auto;html=1;entryX=0;entryY=0.5;entryDx=0;entryDy=0;endArrow=open;endFill=0;" edge="1" parent="qjKBD9P_O_JD6ae_mKQQ-1" source="qjKBD9P_O_JD6ae_mKQQ-156" target="qjKBD9P_O_JD6ae_mKQQ-210">
          <mxGeometry relative="1" as="geometry" />
        </mxCell>
        <mxCell id="qjKBD9P_O_JD6ae_mKQQ-213" style="edgeStyle=orthogonalEdgeStyle;rounded=0;orthogonalLoop=1;jettySize=auto;html=1;entryX=0;entryY=0.5;entryDx=0;entryDy=0;endArrow=open;endFill=0;" edge="1" parent="qjKBD9P_O_JD6ae_mKQQ-1" source="qjKBD9P_O_JD6ae_mKQQ-156" target="qjKBD9P_O_JD6ae_mKQQ-211">
          <mxGeometry relative="1" as="geometry" />
        </mxCell>
        <mxCell id="qjKBD9P_O_JD6ae_mKQQ-214" style="edgeStyle=orthogonalEdgeStyle;rounded=0;orthogonalLoop=1;jettySize=auto;html=1;entryX=0;entryY=0.5;entryDx=0;entryDy=0;endArrow=open;endFill=0;" edge="1" parent="qjKBD9P_O_JD6ae_mKQQ-1" source="qjKBD9P_O_JD6ae_mKQQ-157" target="qjKBD9P_O_JD6ae_mKQQ-205">
          <mxGeometry relative="1" as="geometry" />
        </mxCell>
        <mxCell id="qjKBD9P_O_JD6ae_mKQQ-152" style="edgeStyle=orthogonalEdgeStyle;rounded=0;orthogonalLoop=1;jettySize=auto;html=1;entryX=0;entryY=0.5;entryDx=0;entryDy=0;endArrow=open;endFill=0;" edge="1" parent="1" source="qjKBD9P_O_JD6ae_mKQQ-81" target="qjKBD9P_O_JD6ae_mKQQ-110">
          <mxGeometry relative="1" as="geometry" />
        </mxCell>
        <mxCell id="qjKBD9P_O_JD6ae_mKQQ-81" value="软件开发计划" style="shape=document;whiteSpace=wrap;html=1;boundedLbl=1;shadow=1;fontSize=12;" vertex="1" parent="1">
          <mxGeometry x="-746" y="518.41" width="120" height="30" as="geometry" />
        </mxCell>
        <mxCell id="qjKBD9P_O_JD6ae_mKQQ-82" style="edgeStyle=elbowEdgeStyle;rounded=0;orthogonalLoop=1;jettySize=auto;html=1;endArrow=open;endFill=0;" edge="1" parent="1" source="qjKBD9P_O_JD6ae_mKQQ-83" target="qjKBD9P_O_JD6ae_mKQQ-69">
          <mxGeometry relative="1" as="geometry" />
        </mxCell>
        <mxCell id="qjKBD9P_O_JD6ae_mKQQ-129" style="edgeStyle=orthogonalEdgeStyle;rounded=0;orthogonalLoop=1;jettySize=auto;html=1;entryX=0;entryY=0.5;entryDx=0;entryDy=0;endArrow=open;endFill=0;" edge="1" parent="1" source="qjKBD9P_O_JD6ae_mKQQ-83" target="qjKBD9P_O_JD6ae_mKQQ-128">
          <mxGeometry relative="1" as="geometry" />
        </mxCell>
        <mxCell id="qjKBD9P_O_JD6ae_mKQQ-159" style="edgeStyle=orthogonalEdgeStyle;rounded=0;orthogonalLoop=1;jettySize=auto;html=1;entryX=0.5;entryY=0;entryDx=0;entryDy=0;endArrow=open;endFill=0;" edge="1" parent="1" source="qjKBD9P_O_JD6ae_mKQQ-83" target="qjKBD9P_O_JD6ae_mKQQ-158">
          <mxGeometry relative="1" as="geometry">
            <Array as="points">
              <mxPoint x="-340" y="150" />
              <mxPoint x="-528" y="150" />
            </Array>
          </mxGeometry>
        </mxCell>
        <mxCell id="qjKBD9P_O_JD6ae_mKQQ-83" value="任务分配与跟踪" style="rounded=0;whiteSpace=wrap;html=1;shadow=1;fontSize=12;" vertex="1" parent="1">
          <mxGeometry x="-480" y="104.00999999999999" width="280" height="30" as="geometry" />
        </mxCell>
        <mxCell id="qjKBD9P_O_JD6ae_mKQQ-109" style="edgeStyle=orthogonalEdgeStyle;rounded=0;orthogonalLoop=1;jettySize=auto;html=1;entryX=0;entryY=0.5;entryDx=0;entryDy=0;endArrow=open;endFill=0;" edge="1" parent="1" source="qjKBD9P_O_JD6ae_mKQQ-110" target="qjKBD9P_O_JD6ae_mKQQ-70">
          <mxGeometry relative="1" as="geometry" />
        </mxCell>
        <mxCell id="qjKBD9P_O_JD6ae_mKQQ-172" style="edgeStyle=orthogonalEdgeStyle;rounded=0;orthogonalLoop=1;jettySize=auto;html=1;entryX=0;entryY=0.5;entryDx=0;entryDy=0;endArrow=open;endFill=0;" edge="1" parent="1" source="qjKBD9P_O_JD6ae_mKQQ-110" target="qjKBD9P_O_JD6ae_mKQQ-147">
          <mxGeometry relative="1" as="geometry" />
        </mxCell>
        <mxCell id="qjKBD9P_O_JD6ae_mKQQ-173" style="edgeStyle=orthogonalEdgeStyle;rounded=0;orthogonalLoop=1;jettySize=auto;html=1;entryX=0;entryY=0.5;entryDx=0;entryDy=0;endArrow=open;endFill=0;" edge="1" parent="1" source="qjKBD9P_O_JD6ae_mKQQ-110" target="qjKBD9P_O_JD6ae_mKQQ-148">
          <mxGeometry relative="1" as="geometry" />
        </mxCell>
        <mxCell id="qjKBD9P_O_JD6ae_mKQQ-174" style="edgeStyle=orthogonalEdgeStyle;rounded=0;orthogonalLoop=1;jettySize=auto;html=1;entryX=0;entryY=0.5;entryDx=0;entryDy=0;endArrow=open;endFill=0;" edge="1" parent="1" source="qjKBD9P_O_JD6ae_mKQQ-110" target="qjKBD9P_O_JD6ae_mKQQ-149">
          <mxGeometry relative="1" as="geometry" />
        </mxCell>
        <mxCell id="qjKBD9P_O_JD6ae_mKQQ-175" style="edgeStyle=orthogonalEdgeStyle;rounded=0;orthogonalLoop=1;jettySize=auto;html=1;entryX=0;entryY=0.5;entryDx=0;entryDy=0;endArrow=open;endFill=0;" edge="1" parent="1" source="qjKBD9P_O_JD6ae_mKQQ-110" target="qjKBD9P_O_JD6ae_mKQQ-151">
          <mxGeometry relative="1" as="geometry" />
        </mxCell>
        <mxCell id="qjKBD9P_O_JD6ae_mKQQ-176" style="edgeStyle=orthogonalEdgeStyle;rounded=0;orthogonalLoop=1;jettySize=auto;html=1;entryX=0;entryY=0.5;entryDx=0;entryDy=0;endArrow=open;endFill=0;" edge="1" parent="1" source="qjKBD9P_O_JD6ae_mKQQ-110" target="qjKBD9P_O_JD6ae_mKQQ-150">
          <mxGeometry relative="1" as="geometry" />
        </mxCell>
        <mxCell id="qjKBD9P_O_JD6ae_mKQQ-201" style="edgeStyle=orthogonalEdgeStyle;rounded=0;orthogonalLoop=1;jettySize=auto;html=1;endArrow=open;endFill=0;" edge="1" parent="1" source="qjKBD9P_O_JD6ae_mKQQ-110">
          <mxGeometry relative="1" as="geometry">
            <mxPoint x="-329" y="820" as="targetPoint" />
            <Array as="points">
              <mxPoint x="-340" y="590" />
              <mxPoint x="-140" y="590" />
              <mxPoint x="-140" y="820" />
              <mxPoint x="-329" y="820" />
            </Array>
          </mxGeometry>
        </mxCell>
        <mxCell id="qjKBD9P_O_JD6ae_mKQQ-110" value="召开阶段会议" style="rounded=0;whiteSpace=wrap;html=1;shadow=1;fontSize=12;" vertex="1" parent="1">
          <mxGeometry x="-469" y="518.41" width="280" height="30" as="geometry" />
        </mxCell>
        <mxCell id="qjKBD9P_O_JD6ae_mKQQ-137" style="edgeStyle=orthogonalEdgeStyle;rounded=0;orthogonalLoop=1;jettySize=auto;html=1;entryX=0;entryY=0.5;entryDx=0;entryDy=0;endArrow=open;endFill=0;" edge="1" parent="1" source="qjKBD9P_O_JD6ae_mKQQ-124" target="qjKBD9P_O_JD6ae_mKQQ-131">
          <mxGeometry relative="1" as="geometry" />
        </mxCell>
        <mxCell id="qjKBD9P_O_JD6ae_mKQQ-138" style="edgeStyle=orthogonalEdgeStyle;rounded=0;orthogonalLoop=1;jettySize=auto;html=1;entryX=0;entryY=0.5;entryDx=0;entryDy=0;endArrow=open;endFill=0;" edge="1" parent="1" source="qjKBD9P_O_JD6ae_mKQQ-124" target="qjKBD9P_O_JD6ae_mKQQ-132">
          <mxGeometry relative="1" as="geometry" />
        </mxCell>
        <mxCell id="qjKBD9P_O_JD6ae_mKQQ-139" style="edgeStyle=orthogonalEdgeStyle;rounded=0;orthogonalLoop=1;jettySize=auto;html=1;entryX=0;entryY=0.5;entryDx=0;entryDy=0;endArrow=open;endFill=0;" edge="1" parent="1" source="qjKBD9P_O_JD6ae_mKQQ-124" target="qjKBD9P_O_JD6ae_mKQQ-133">
          <mxGeometry relative="1" as="geometry" />
        </mxCell>
        <mxCell id="qjKBD9P_O_JD6ae_mKQQ-140" style="edgeStyle=orthogonalEdgeStyle;rounded=0;orthogonalLoop=1;jettySize=auto;html=1;entryX=0;entryY=0.5;entryDx=0;entryDy=0;endArrow=open;endFill=0;" edge="1" parent="1" source="qjKBD9P_O_JD6ae_mKQQ-124" target="qjKBD9P_O_JD6ae_mKQQ-134">
          <mxGeometry relative="1" as="geometry" />
        </mxCell>
        <mxCell id="qjKBD9P_O_JD6ae_mKQQ-141" style="edgeStyle=orthogonalEdgeStyle;rounded=0;orthogonalLoop=1;jettySize=auto;html=1;entryX=0;entryY=0.5;entryDx=0;entryDy=0;endArrow=open;endFill=0;" edge="1" parent="1" source="qjKBD9P_O_JD6ae_mKQQ-124" target="qjKBD9P_O_JD6ae_mKQQ-135">
          <mxGeometry relative="1" as="geometry" />
        </mxCell>
        <mxCell id="qjKBD9P_O_JD6ae_mKQQ-179" style="edgeStyle=orthogonalEdgeStyle;rounded=0;orthogonalLoop=1;jettySize=auto;html=1;endArrow=open;endFill=0;" edge="1" parent="1" source="qjKBD9P_O_JD6ae_mKQQ-124">
          <mxGeometry relative="1" as="geometry">
            <mxPoint x="-329" y="840" as="targetPoint" />
            <Array as="points">
              <mxPoint x="-350" y="280" />
              <mxPoint x="-110" y="280" />
              <mxPoint x="-110" y="840" />
              <mxPoint x="-329" y="840" />
            </Array>
          </mxGeometry>
        </mxCell>
        <mxCell id="qjKBD9P_O_JD6ae_mKQQ-203" style="edgeStyle=orthogonalEdgeStyle;rounded=0;orthogonalLoop=1;jettySize=auto;html=1;entryX=0;entryY=0.5;entryDx=0;entryDy=0;endArrow=open;endFill=0;" edge="1" parent="1" source="qjKBD9P_O_JD6ae_mKQQ-124" target="qjKBD9P_O_JD6ae_mKQQ-136">
          <mxGeometry relative="1" as="geometry" />
        </mxCell>
        <mxCell id="qjKBD9P_O_JD6ae_mKQQ-124" value="召开单/双周例会" style="rounded=0;whiteSpace=wrap;html=1;shadow=1;fontSize=12;" vertex="1" parent="1">
          <mxGeometry x="-480" y="220" width="280" height="30" as="geometry" />
        </mxCell>
        <mxCell id="qjKBD9P_O_JD6ae_mKQQ-126" style="edgeStyle=orthogonalEdgeStyle;rounded=0;orthogonalLoop=1;jettySize=auto;html=1;entryX=0;entryY=0.5;entryDx=0;entryDy=0;endArrow=open;endFill=0;" edge="1" parent="1" source="qjKBD9P_O_JD6ae_mKQQ-32" target="qjKBD9P_O_JD6ae_mKQQ-83">
          <mxGeometry relative="1" as="geometry" />
        </mxCell>
        <mxCell id="qjKBD9P_O_JD6ae_mKQQ-130" style="edgeStyle=orthogonalEdgeStyle;rounded=0;orthogonalLoop=1;jettySize=auto;html=1;entryX=0;entryY=0.5;entryDx=0;entryDy=0;endArrow=open;endFill=0;" edge="1" parent="1" source="qjKBD9P_O_JD6ae_mKQQ-33" target="qjKBD9P_O_JD6ae_mKQQ-124">
          <mxGeometry relative="1" as="geometry" />
        </mxCell>
        <mxCell id="qjKBD9P_O_JD6ae_mKQQ-153" style="edgeStyle=orthogonalEdgeStyle;rounded=0;orthogonalLoop=1;jettySize=auto;html=1;entryX=0;entryY=0.5;entryDx=0;entryDy=0;endArrow=open;endFill=0;" edge="1" parent="1" source="qjKBD9P_O_JD6ae_mKQQ-20" target="qjKBD9P_O_JD6ae_mKQQ-110">
          <mxGeometry relative="1" as="geometry" />
        </mxCell>
        <mxCell id="qjKBD9P_O_JD6ae_mKQQ-165" style="edgeStyle=orthogonalEdgeStyle;rounded=0;orthogonalLoop=1;jettySize=auto;html=1;endArrow=open;endFill=0;" edge="1" parent="1" source="qjKBD9P_O_JD6ae_mKQQ-162">
          <mxGeometry relative="1" as="geometry">
            <mxPoint x="-280" y="250" as="targetPoint" />
            <Array as="points">
              <mxPoint x="-280" y="405" />
            </Array>
          </mxGeometry>
        </mxCell>
        <mxCell id="qjKBD9P_O_JD6ae_mKQQ-166" value="否" style="edgeLabel;html=1;align=center;verticalAlign=middle;resizable=0;points=[];" vertex="1" connectable="0" parent="qjKBD9P_O_JD6ae_mKQQ-165">
          <mxGeometry x="-0.5724" y="4" relative="1" as="geometry">
            <mxPoint as="offset" />
          </mxGeometry>
        </mxCell>
        <mxCell id="qjKBD9P_O_JD6ae_mKQQ-167" value="是" style="edgeStyle=orthogonalEdgeStyle;rounded=0;orthogonalLoop=1;jettySize=auto;html=1;entryX=0.5;entryY=0;entryDx=0;entryDy=0;endArrow=open;endFill=0;" edge="1" parent="1" source="qjKBD9P_O_JD6ae_mKQQ-162" target="qjKBD9P_O_JD6ae_mKQQ-110">
          <mxGeometry relative="1" as="geometry" />
        </mxCell>
        <mxCell id="qjKBD9P_O_JD6ae_mKQQ-187" style="edgeStyle=orthogonalEdgeStyle;rounded=0;orthogonalLoop=1;jettySize=auto;html=1;endArrow=open;endFill=0;" edge="1" parent="1" source="qjKBD9P_O_JD6ae_mKQQ-181">
          <mxGeometry relative="1" as="geometry">
            <mxPoint x="-340" y="90" as="targetPoint" />
            <Array as="points">
              <mxPoint x="-590" y="955" />
              <mxPoint x="-590" y="90" />
              <mxPoint x="-340" y="90" />
            </Array>
          </mxGeometry>
        </mxCell>
        <mxCell id="qjKBD9P_O_JD6ae_mKQQ-188" value="否" style="edgeLabel;html=1;align=center;verticalAlign=middle;resizable=0;points=[];" vertex="1" connectable="0" parent="qjKBD9P_O_JD6ae_mKQQ-187">
          <mxGeometry x="-0.8972" y="2" relative="1" as="geometry">
            <mxPoint as="offset" />
          </mxGeometry>
        </mxCell>
        <mxCell id="qjKBD9P_O_JD6ae_mKQQ-202" style="edgeStyle=orthogonalEdgeStyle;rounded=0;orthogonalLoop=1;jettySize=auto;html=1;endArrow=open;endFill=0;" edge="1" parent="1" source="qjKBD9P_O_JD6ae_mKQQ-157">
          <mxGeometry relative="1" as="geometry">
            <mxPoint x="-340" y="90" as="targetPoint" />
            <Array as="points">
              <mxPoint x="-329" y="1070" />
              <mxPoint x="-80" y="1070" />
              <mxPoint x="-80" y="90" />
              <mxPoint x="-340" y="90" />
            </Array>
          </mxGeometry>
        </mxCell>
        <mxCell id="qjKBD9P_O_JD6ae_mKQQ-216" style="edgeStyle=orthogonalEdgeStyle;rounded=0;orthogonalLoop=1;jettySize=auto;html=1;entryX=0.5;entryY=0;entryDx=0;entryDy=0;endArrow=open;endFill=0;" edge="1" parent="1" source="qjKBD9P_O_JD6ae_mKQQ-215" target="qjKBD9P_O_JD6ae_mKQQ-83">
          <mxGeometry relative="1" as="geometry" />
        </mxCell>
      </root>
    </mxGraphModel>
  </diagram>
</mxfile>
